<svg id="Camada_1" data-name="Camada 1" xmlns="http://www.w3.org/2000/svg" viewBox="0 0 313 135"><defs><style>.cls-1{fill:#fdc04b;}.cls-1,.cls-2,.cls-3,.cls-4{fill-rule:evenodd;}.cls-2{fill:#e94c87;}.cls-3{fill:#26ace2;}.cls-4{fill:#6353a1;}.cls-5{fill:#3e09b0;}.cls-6{fill:#373435;}</style></defs><path class="cls-1" d="M27.62,6.93H76.57a27.74,27.74,0,0,1,21,9.18,28.17,28.17,0,0,1,6.74,22h-49a27.8,27.8,0,0,1-21-9.17A28.17,28.17,0,0,1,27.62,6.93Z"/><path class="cls-2" d="M20.32,73.11H69.26A34.71,34.71,0,0,0,92.3,64a35.17,35.17,0,0,0,11.62-22.05H55a35.83,35.83,0,0,0-34.63,31.2Z"/><path class="cls-3" d="M55,41.91C54,50.07,53.14,58.25,52.24,66.4l-2.7,24.47a35.19,35.19,0,0,1-11.6,22,34.69,34.69,0,0,1-23,9.16q1.35-12.22,2.71-24.47t2.71-24.49a35.12,35.12,0,0,1,11.58-22A34.7,34.7,0,0,1,55,41.91Z"/><path class="cls-4" d="M20.32,73.11H51.51q.85-7.78,1.72-15.59c.57-5.19,1.14-10.41,1.72-15.61h-.8l-.79,0-.81.06-.8.07-.79.09-.79.11-.78.12-.78.16-.77.17c-.26.05-.52.11-.77.18l-.76.2c-.26.06-.51.15-.76.22l-.76.24-.75.25-.75.28-.73.28-.73.3-.72.33-.7.34-.72.35-.7.37q-.35.18-.69.39l-.68.39c-.22.14-.46.27-.67.41l-.67.44-.65.44c-.23.15-.43.3-.64.46s-.43.31-.65.47l-.63.48-.62.5-.59.51c-.21.17-.4.35-.6.53s-.39.35-.57.54-.39.35-.58.54-.38.38-.56.56l-.56.58-.52.57c-.18.21-.35.41-.53.6s-.34.4-.51.61-.33.41-.49.61-.32.43-.49.63l-.47.64-.45.65c-.16.22-.3.44-.45.66l-.42.67c-.14.22-.27.45-.41.68l-.4.68-.39.7-.36.7-.36.72c-.1.23-.22.47-.33.71s-.21.48-.32.72-.2.5-.3.74-.19.5-.28.75-.18.5-.26.75-.18.51-.26.76a7.32,7.32,0,0,0-.23.76c-.08.25-.14.51-.22.77l-.19.77c-.06.27-.12.52-.17.78s-.11.53-.16.79-.09.53-.13.79-.09.53-.13.8S20.35,72.85,20.32,73.11Z"/><path class="cls-5" d="M142.46,87.12A8.7,8.7,0,0,0,147,86a5.63,5.63,0,0,0,2.37-3.89,7,7,0,0,0,.23-1.79,2.58,2.58,0,0,0-1.21-2.44,8.25,8.25,0,0,0-3.89-.69h-4.4l-2.09,9.91ZM130.17,67.7h18.66a15.22,15.22,0,0,1,9.57,2.87,9.7,9.7,0,0,1,3.71,8.14,19.56,19.56,0,0,1-.41,3.42q-1.5,7.14-6.32,10.82c-3.2,2.45-7.44,3.68-12.69,3.68H136l-2.43,11.59h-12Z"/><path class="cls-5" d="M183,91.06a3.74,3.74,0,0,0-.84-2.9c-.64-.65-1.83-1-3.57-1a6.77,6.77,0,0,0-3.86,1,6,6,0,0,0-2.23,2.84Zm-7.54,18q-6.84,0-10.93-3a9.93,9.93,0,0,1-4.09-8.47,16.59,16.59,0,0,1,.35-3.19,18.7,18.7,0,0,1,6.29-11q4.78-3.91,13.31-3.91A16.12,16.12,0,0,1,187.56,81a10.9,10.9,0,0,1,4.61,4.09A11.13,11.13,0,0,1,193.76,91a14.08,14.08,0,0,1-.35,3l-.81,3.77H171.15a3.24,3.24,0,0,0,1.77,2.81q1.65.9,5.83.9a40.6,40.6,0,0,0,5.79-.44,26,26,0,0,0,5.22-1.24l-1.51,7.24a30,30,0,0,1-5.85,1.48A43,43,0,0,1,175.5,109.09Z"/><path class="cls-5" d="M212.31,100.11a7.74,7.74,0,0,0,3.71-.93,7.83,7.83,0,0,0,2.84-2.55l1-4.58a4.23,4.23,0,0,0-1.74-2.55,5.64,5.64,0,0,0-3.31-.93,7.25,7.25,0,0,0-4.66,1.54,7,7,0,0,0-2.52,4.26,11.25,11.25,0,0,0-.24,1.85c0,2.59,1.65,3.89,4.93,3.89m-5,9a12.51,12.51,0,0,1-8.76-3,10.54,10.54,0,0,1-3.3-8.18,19.79,19.79,0,0,1,.41-3.53,18.82,18.82,0,0,1,6.2-10.82,17.6,17.6,0,0,1,11.77-4,14.29,14.29,0,0,1,4.84.78,8.76,8.76,0,0,1,3.45,2.11l.46-2h11.6L228,108.22H216.83l.53-2.55a16.6,16.6,0,0,1-10.09,3.42Z"/><polygon class="cls-5" points="241.76 65.38 253.36 65.38 247.85 91.06 258.4 80.39 271.68 80.39 258.4 93.79 267.33 108.22 254.05 108.22 246.75 96.39 244.25 108.22 232.66 108.22 241.76 65.38"/><path class="cls-5" d="M280,121.55a29.6,29.6,0,0,1-5.51-.52,19.13,19.13,0,0,1-4.64-1.39l1.62-7.71a23.59,23.59,0,0,0,10.15,2q3.95,0,5.85-1.5a7.47,7.47,0,0,0,2.55-4.53l.64-3.13a14.69,14.69,0,0,1-4.72,2.64,16.36,16.36,0,0,1-5.31.9q-4.52,0-6.93-2.49a9,9,0,0,1-2.4-6.5,12.54,12.54,0,0,1,.29-2.84L275,80.39h11.59l-3.13,14.67a12.45,12.45,0,0,0-.23,1.74,2.32,2.32,0,0,0,.73,1.89,3.55,3.55,0,0,0,2.29.6,7.2,7.2,0,0,0,5.85-3.13l3.36-15.77H307.1l-5.4,25.28q-1.62,7.77-6.78,11.83t-14.95,4"/><path class="cls-6" d="M124.14,114.79a1.27,1.27,0,0,0-1,.38,1.87,1.87,0,0,0-.47,1h2.63v0a1.49,1.49,0,0,0-.31-1,1.15,1.15,0,0,0-.87-.34M126.3,117h-3.67a1.81,1.81,0,0,0,.44,1.31,1.54,1.54,0,0,0,1.1.41,2.66,2.66,0,0,0,.84-.12,4.94,4.94,0,0,0,.79-.37l.39.73a3.76,3.76,0,0,1-2.07.64,2.58,2.58,0,0,1-1.84-.65,2.68,2.68,0,0,1-.69-2,3.52,3.52,0,0,1,.28-1.44,2.5,2.5,0,0,1,.86-1,2.46,2.46,0,0,1,1.41-.39,2.35,2.35,0,0,1,1.19.28,1.8,1.8,0,0,1,.74.78,2.41,2.41,0,0,1,.26,1.13Z"/><path class="cls-6" d="M132.61,116.89a2.05,2.05,0,0,0,.36,1.33,1.25,1.25,0,0,0,1,.44,2.71,2.71,0,0,0,1.37-.4V115a3.32,3.32,0,0,0-1.06-.18,1.66,1.66,0,0,0-.87.22,1.58,1.58,0,0,0-.6.69,2.69,2.69,0,0,0-.22,1.17M136.4,111v8.4h-.94l-.05-.38a4,4,0,0,1-.88.39,2.83,2.83,0,0,1-.83.14,2.18,2.18,0,0,1-1.19-.32,2,2,0,0,1-.75-.92,3.5,3.5,0,0,1-.26-1.4,3.22,3.22,0,0,1,.36-1.57,2.35,2.35,0,0,1,1-1,2.82,2.82,0,0,1,1.4-.34,4.9,4.9,0,0,1,1.14.15v-3Z"/><path class="cls-6" d="M142.41,119.4v-5.27l1-.12v5.39Zm.51-6.34a.65.65,0,0,1-.36-.1.78.78,0,0,1-.27-.27.66.66,0,0,1-.11-.36.73.73,0,0,1,.11-.38.78.78,0,0,1,.27-.27.75.75,0,0,1,.36-.1.79.79,0,0,1,.37.1.87.87,0,0,1,.27.27.72.72,0,0,1,.1.38.65.65,0,0,1-.1.36.87.87,0,0,1-.27.27A.69.69,0,0,1,142.92,113.06Z"/><path class="cls-6" d="M151.68,119.93c.74.07,1.12.41,1.12,1a1,1,0,0,1-.37.82,1.61,1.61,0,0,1-1,.28,2.68,2.68,0,0,1-1.18-.27l.24-.63a2.59,2.59,0,0,0,.85.19.63.63,0,0,0,.41-.1.37.37,0,0,0,.12-.31.35.35,0,0,0-.26-.35,3.05,3.05,0,0,0-.85-.11l.13-1a2.12,2.12,0,0,1-1.33-.79,2.86,2.86,0,0,1-.5-1.8,3.15,3.15,0,0,1,.39-1.65,2.34,2.34,0,0,1,1-1,2.91,2.91,0,0,1,1.29-.3,3.48,3.48,0,0,1,1.66.46l-.38.79a4.21,4.21,0,0,0-.73-.29,2.18,2.18,0,0,0-.63-.08,1.3,1.3,0,0,0-1.11.53,2.52,2.52,0,0,0-.39,1.5,1.88,1.88,0,0,0,.4,1.35,1.47,1.47,0,0,0,1.09.41,2.17,2.17,0,0,0,.74-.13,5.25,5.25,0,0,0,.73-.35l.4.73a4.22,4.22,0,0,1-.84.44,3,3,0,0,1-1,.2Z"/><path class="cls-6" d="M161.41,113.29a1,1,0,0,1-.49-.1,2,2,0,0,1-.42-.28l-.25-.18a.35.35,0,0,0-.2,0,.44.44,0,0,0-.3.12,1.2,1.2,0,0,0-.3.41l-.61-.24a2.48,2.48,0,0,1,.57-.88,1,1,0,0,1,.75-.28,1,1,0,0,1,.48.1,2.71,2.71,0,0,1,.43.29l.25.17a.35.35,0,0,0,.2,0,.48.48,0,0,0,.31-.12,1.35,1.35,0,0,0,.29-.41l.62.25a2.52,2.52,0,0,1-.57.87,1.08,1.08,0,0,1-.76.28M159.46,118a.56.56,0,0,0,.19.47.81.81,0,0,0,.56.16,3,3,0,0,0,1.6-.48v-1.25a5.09,5.09,0,0,0-1.7.32C159.68,117.45,159.46,117.71,159.46,118ZM161,114a2,2,0,0,1,1.39.42,1.69,1.69,0,0,1,.46,1.32v3.67h-.93l-.06-.45a3.22,3.22,0,0,1-1.92.6,1.83,1.83,0,0,1-.82-.18,1.33,1.33,0,0,1-.56-.49,1.37,1.37,0,0,1-.19-.73,1.42,1.42,0,0,1,.47-1.1,2.74,2.74,0,0,1,1.25-.64,7.1,7.1,0,0,1,1.73-.23v-.27a1.12,1.12,0,0,0-.22-.78.91.91,0,0,0-.73-.25,3.37,3.37,0,0,0-1.83.62l-.46-.72A4.21,4.21,0,0,1,161,114Z"/><path class="cls-6" d="M171,118.7c1,0,1.55-.64,1.55-1.94a2.31,2.31,0,0,0-.38-1.41,1.3,1.3,0,0,0-1.13-.52,1.39,1.39,0,0,0-1.21.51,2.84,2.84,0,0,0,0,2.84,1.32,1.32,0,0,0,1.15.52m-.09.85a2.55,2.55,0,0,1-1.41-.37,2.16,2.16,0,0,1-.84-1,3.4,3.4,0,0,1-.28-1.42,3.14,3.14,0,0,1,.36-1.59,2.16,2.16,0,0,1,1-.9,3.3,3.3,0,0,1,1.4-.28,2.51,2.51,0,0,1,1.41.37,2.2,2.2,0,0,1,.84,1,3.53,3.53,0,0,1,.28,1.42,3.12,3.12,0,0,1-.36,1.59,2.12,2.12,0,0,1-1,.9A3.26,3.26,0,0,1,170.91,119.55Z"/><path class="cls-6" d="M187.14,116.89a2.05,2.05,0,0,0,.36,1.33,1.25,1.25,0,0,0,1,.44,2.71,2.71,0,0,0,1.37-.4V115a3.32,3.32,0,0,0-1.06-.18,1.66,1.66,0,0,0-.87.22,1.58,1.58,0,0,0-.6.69,2.69,2.69,0,0,0-.22,1.17m3.79-5.89v8.4H190l-.05-.38a4,4,0,0,1-.88.39,2.89,2.89,0,0,1-.83.14,2.18,2.18,0,0,1-1.19-.32,2,2,0,0,1-.75-.92,3.5,3.5,0,0,1-.26-1.4,3.34,3.34,0,0,1,.35-1.57,2.43,2.43,0,0,1,1-1,2.82,2.82,0,0,1,1.4-.34,5,5,0,0,1,1.14.15v-3Z"/><path class="cls-6" d="M199.07,114.79a1.29,1.29,0,0,0-1,.38,1.86,1.86,0,0,0-.46,1h2.62v0a1.44,1.44,0,0,0-.31-1,1.12,1.12,0,0,0-.87-.34m2.17,2.16h-3.67a1.76,1.76,0,0,0,.44,1.31,1.53,1.53,0,0,0,1.1.41,2.55,2.55,0,0,0,.83-.12,4.94,4.94,0,0,0,.79-.37l.4.73a3.81,3.81,0,0,1-2.07.64,2.61,2.61,0,0,1-1.85-.65,2.68,2.68,0,0,1-.69-2,3.53,3.53,0,0,1,.29-1.44,2.34,2.34,0,0,1,2.26-1.43,2.33,2.33,0,0,1,1.19.28,1.88,1.88,0,0,1,.75.78,2.41,2.41,0,0,1,.25,1.13Z"/><path class="cls-6" d="M218.55,114.13v.07l-2.1,5.2h-.95l-2.16-5.2v-.07h1.13l1.28,3.4.19.55.07.23c.08-.28.17-.54.26-.78l1.2-3.4Z"/><path class="cls-6" d="M223.76,113.52l-.4-.47,1.88-1.53.62.86Zm.07,5.88v-5.27l1-.12v5.39Z"/><path class="cls-6" d="M231.57,116.89a2.05,2.05,0,0,0,.36,1.33,1.25,1.25,0,0,0,1,.44,2.74,2.74,0,0,0,1.38-.4V115a3.42,3.42,0,0,0-1.06-.18,1.72,1.72,0,0,0-.88.22,1.58,1.58,0,0,0-.6.69,2.69,2.69,0,0,0-.22,1.17m3.79-5.89v8.4h-.94l0-.38a3.94,3.94,0,0,1-.87.39,2.94,2.94,0,0,1-.83.14,2.19,2.19,0,0,1-1.2-.32,2,2,0,0,1-.75-.92,3.5,3.5,0,0,1-.26-1.4,3.22,3.22,0,0,1,.36-1.57,2.43,2.43,0,0,1,1-1,2.78,2.78,0,0,1,1.39-.34,5,5,0,0,1,1.15.15v-3Z"/><path class="cls-6" d="M243.51,114.79a1.27,1.27,0,0,0-1,.38,1.87,1.87,0,0,0-.47,1h2.63v0a1.49,1.49,0,0,0-.31-1,1.15,1.15,0,0,0-.87-.34m2.16,2.16H242a1.81,1.81,0,0,0,.44,1.31,1.54,1.54,0,0,0,1.1.41,2.66,2.66,0,0,0,.84-.12,4.94,4.94,0,0,0,.79-.37l.39.73a3.76,3.76,0,0,1-2.07.64,2.58,2.58,0,0,1-1.84-.65,2.68,2.68,0,0,1-.69-2,3.52,3.52,0,0,1,.28-1.44,2.5,2.5,0,0,1,.86-1,2.46,2.46,0,0,1,1.41-.39,2.35,2.35,0,0,1,1.19.28,1.85,1.85,0,0,1,.74.78,2.41,2.41,0,0,1,.26,1.13Z"/><path class="cls-6" d="M253.49,118.7c1,0,1.55-.64,1.55-1.94a2.38,2.38,0,0,0-.37-1.41,1.33,1.33,0,0,0-1.14-.52,1.39,1.39,0,0,0-1.21.51,2.84,2.84,0,0,0,0,2.84,1.32,1.32,0,0,0,1.15.52m-.09.85a2.57,2.57,0,0,1-1.41-.37,2.16,2.16,0,0,1-.84-1,3.4,3.4,0,0,1-.28-1.42,3.14,3.14,0,0,1,.36-1.59,2.18,2.18,0,0,1,1-.9,3.23,3.23,0,0,1,1.39-.28,2.51,2.51,0,0,1,1.41.37,2.14,2.14,0,0,1,.84,1,3.36,3.36,0,0,1,.28,1.42,3.12,3.12,0,0,1-.36,1.59,2.08,2.08,0,0,1-1,.9A3.26,3.26,0,0,1,253.4,119.55Z"/><path class="cls-6" d="M263.44,119.55a4.14,4.14,0,0,1-1.27-.18,3.25,3.25,0,0,1-1.05-.53l.46-.74a3.07,3.07,0,0,0,1.83.63,1.5,1.5,0,0,0,.83-.19.61.61,0,0,0,.29-.55.62.62,0,0,0-.26-.49,2.57,2.57,0,0,0-.91-.38L263,117a2.81,2.81,0,0,1-1.24-.57,1.22,1.22,0,0,1-.39-1,1.32,1.32,0,0,1,.25-.78,1.7,1.7,0,0,1,.71-.54,2.54,2.54,0,0,1,1-.19,4.48,4.48,0,0,1,1,.12,4.14,4.14,0,0,1,1,.43l-.42.74a4.38,4.38,0,0,0-.85-.37,2.76,2.76,0,0,0-.77-.1,1.12,1.12,0,0,0-.68.17.53.53,0,0,0-.25.46.48.48,0,0,0,.2.4,2.44,2.44,0,0,0,.69.27l.37.09a4.82,4.82,0,0,1,1.1.41,1.57,1.57,0,0,1,.61.55,1.43,1.43,0,0,1,.19.76,1.51,1.51,0,0,1-.24.85,1.56,1.56,0,0,1-.73.57,2.91,2.91,0,0,1-1.17.21"/></svg>