<svg id="Camada_1" data-name="Camada 1" xmlns="http://www.w3.org/2000/svg" viewBox="0 0 248 98.98"><defs><style>.cls-1{fill:#fdc04b;}.cls-1,.cls-2,.cls-3,.cls-4{fill-rule:evenodd;}.cls-2{fill:#e94c87;}.cls-3{fill:#26ace2;}.cls-4{fill:#6353a1;}.cls-5{fill:#3e09b0;}.cls-6{fill:#373435;}</style></defs><path class="cls-1" d="M23.2,3.92h37a21.35,21.35,0,0,1,15.89,6.69,20,20,0,0,1,5.09,16.07h-37A21.36,21.36,0,0,1,28.28,20,20.06,20.06,0,0,1,23.2,3.92Z"/><path class="cls-2" d="M17.68,52.16h37a26.76,26.76,0,0,0,17.41-6.67,25.35,25.35,0,0,0,8.78-16.07h-37A26.75,26.75,0,0,0,26.44,36.1,25.28,25.28,0,0,0,17.68,52.16Z"/><path class="cls-3" d="M43.85,29.42l-2,17.85-2,17.83A25.36,25.36,0,0,1,31,81.17a26.74,26.74,0,0,1-17.41,6.68l2-17.84q1-8.91,2-17.85A25.33,25.33,0,0,1,26.44,36.1,26.75,26.75,0,0,1,43.85,29.42Z"/><path class="cls-4" d="M17.68,52.16H41.25c.43-3.78.87-7.58,1.3-11.36s.87-7.59,1.3-11.38h-1.2l-.61,0-.6.05-.6.06-.6.08-.59.09-.59.11-.58.13-.58.13-.58.14-.57.16-.57.18-.57.18L35,31l-.55.21c-.19.06-.36.14-.55.21l-.54.24-.54.25-.54.25-.53.27-.52.29-.51.28-.51.3-.51.32-.49.32c-.17.11-.32.22-.48.34l-.49.34c-.16.12-.31.24-.48.35l-.47.36a5.19,5.19,0,0,1-.45.37l-.44.39-.44.39-.44.4-.42.41c-.14.13-.27.28-.42.42l-.4.42-.4.44c-.12.15-.25.29-.38.44s-.25.29-.37.45-.24.3-.37.46l-.35.46-.35.48-.33.47c-.12.16-.22.32-.33.49l-.3.5c-.11.16-.21.32-.31.49s-.19.35-.29.51l-.28.52c-.09.16-.17.34-.26.52l-.26.52c-.07.17-.16.35-.23.52s-.16.37-.24.54l-.21.55-.19.54-.2.56c-.06.18-.12.37-.17.55l-.17.56c0,.19-.09.38-.14.57s-.09.37-.13.57-.08.38-.12.57-.07.38-.1.58-.07.38-.1.57S17.7,52,17.68,52.16Z"/><path class="cls-5" d="M110,62.37a6.79,6.79,0,0,0,3.46-.8,4.1,4.1,0,0,0,1.79-2.83,5.1,5.1,0,0,0,.18-1.31,1.86,1.86,0,0,0-.92-1.78,6.53,6.53,0,0,0-2.94-.5h-3.33l-1.57,7.22ZM100.7,48.22h14.1A11.74,11.74,0,0,1,122,50.31a7,7,0,0,1,2.81,5.94,13.3,13.3,0,0,1-.31,2.49,12.78,12.78,0,0,1-4.77,7.88q-3.65,2.68-9.6,2.68h-5l-1.84,8.45H94.21Z"/><path class="cls-5" d="M140.65,65.25a2.63,2.63,0,0,0-.63-2.12,3.83,3.83,0,0,0-2.7-.72,5.19,5.19,0,0,0-2.91.77,4.31,4.31,0,0,0-1.69,2.07ZM135,78.39a14,14,0,0,1-8.26-2.2A7.14,7.14,0,0,1,123.61,70a11.84,11.84,0,0,1,.26-2.32,13.52,13.52,0,0,1,4.76-8q3.62-2.85,10.05-2.85a12.61,12.61,0,0,1,5.39,1.07,8.12,8.12,0,0,1,3.48,3,7.85,7.85,0,0,1,1.21,4.31,10.06,10.06,0,0,1-.26,2.2l-.62,2.75H131.67a2.36,2.36,0,0,0,1.34,2,10.48,10.48,0,0,0,4.4.65,30.54,30.54,0,0,0,4.38-.32,20.48,20.48,0,0,0,4-.9l-1.14,5.28A23.76,23.76,0,0,1,140.17,78,34.85,34.85,0,0,1,135,78.39Z"/><path class="cls-5" d="M162.78,71.84a6,6,0,0,0,2.8-.68,5.86,5.86,0,0,0,2.15-1.86l.74-3.34a3.14,3.14,0,0,0-1.31-1.86,4.38,4.38,0,0,0-2.5-.67,5.59,5.59,0,0,0-3.52,1.12,5.12,5.12,0,0,0-1.91,3.1,8,8,0,0,0-.18,1.36c0,1.88,1.25,2.83,3.73,2.83M159,78.39a9.69,9.69,0,0,1-6.62-2.2,7.56,7.56,0,0,1-2.5-6,14.52,14.52,0,0,1,.31-2.58,13.23,13.23,0,0,1,13.58-10.81,11.11,11.11,0,0,1,3.66.57A6.7,6.7,0,0,1,170,59l.35-1.48h8.76l-4.47,20.28H166.2l.39-1.86A12.09,12.09,0,0,1,163,77.73,12.71,12.71,0,0,1,159,78.39Z"/><polygon class="cls-5" points="185.03 46.53 193.8 46.53 189.63 65.25 197.61 57.47 207.64 57.47 197.61 67.23 204.35 77.75 194.32 77.75 188.8 69.13 186.92 77.75 178.16 77.75 185.03 46.53"/><path class="cls-5" d="M213.91,87.47a22.86,22.86,0,0,1-4.17-.38,15,15,0,0,1-3.5-1l1.23-5.62a18.35,18.35,0,0,0,7.66,1.43,7.34,7.34,0,0,0,4.43-1.09,5.52,5.52,0,0,0,1.93-3.3l.48-2.28a11.38,11.38,0,0,1-3.57,1.92,12.71,12.71,0,0,1-4,.66A7.1,7.1,0,0,1,209.15,76a6.41,6.41,0,0,1-1.82-4.73,9,9,0,0,1,.22-2.07l2.59-11.71h8.76l-2.37,10.69a9,9,0,0,0-.17,1.27,1.64,1.64,0,0,0,.55,1.37,2.7,2.7,0,0,0,1.73.45A5.49,5.49,0,0,0,223.06,69l2.54-11.49h8.81l-4.07,18.42a14.09,14.09,0,0,1-5.13,8.62q-3.9,3-11.3,3"/><path class="cls-6" d="M96.14,82.54a1,1,0,0,0-.74.28,1.32,1.32,0,0,0-.35.74h2v0a1.06,1.06,0,0,0-.23-.74.87.87,0,0,0-.66-.25m1.64,1.57H95a1.28,1.28,0,0,0,.34,1,1.16,1.16,0,0,0,.83.3,2,2,0,0,0,.63-.09,3.76,3.76,0,0,0,.6-.27l.3.53a2.93,2.93,0,0,1-1.57.47,2,2,0,0,1-1.39-.47,1.9,1.9,0,0,1-.53-1.49,2.6,2.6,0,0,1,.22-1,1.78,1.78,0,0,1,.65-.76A1.88,1.88,0,0,1,96.14,82a1.93,1.93,0,0,1,.9.2,1.34,1.34,0,0,1,.56.57,1.69,1.69,0,0,1,.2.82Z"/><path class="cls-6" d="M102.54,84.07a1.41,1.41,0,0,0,.28,1,1,1,0,0,0,.77.32,2.06,2.06,0,0,0,1-.29V82.68a2.79,2.79,0,0,0-.8-.13,1.29,1.29,0,0,0-.65.17,1,1,0,0,0-.46.5,2,2,0,0,0-.17.85m2.87-4.29V85.9h-.71l0-.28a3.16,3.16,0,0,1-.66.29,2.16,2.16,0,0,1-.63.1,1.72,1.72,0,0,1-.9-.23,1.5,1.5,0,0,1-.57-.67,2.48,2.48,0,0,1-.19-1,2.41,2.41,0,0,1,.26-1.15,1.79,1.79,0,0,1,.74-.73,2.14,2.14,0,0,1,1.05-.25,3.44,3.44,0,0,1,.86.11v-2.2Z"/><path class="cls-6" d="M110,85.9V82.06l.79-.09V85.9Zm.39-4.62a.55.55,0,0,1-.28-.07.64.64,0,0,1-.2-.2.5.5,0,0,1-.08-.26.57.57,0,0,1,.08-.28.61.61,0,0,1,.2-.19.53.53,0,0,1,.56,0,.61.61,0,0,1,.2.19.57.57,0,0,1,.08.28.5.5,0,0,1-.08.26.64.64,0,0,1-.2.2A.55.55,0,0,1,110.34,81.28Z"/><path class="cls-6" d="M117,86.29c.57,0,.85.3.85.76a.67.67,0,0,1-.28.59,1.24,1.24,0,0,1-.77.21,2.1,2.1,0,0,1-.89-.2l.19-.46a1.9,1.9,0,0,0,.63.14.49.49,0,0,0,.31-.07.29.29,0,0,0,.09-.23.24.24,0,0,0-.19-.25,2.19,2.19,0,0,0-.64-.09l.1-.73a1.54,1.54,0,0,1-1-.57,2,2,0,0,1-.38-1.31,2.33,2.33,0,0,1,.29-1.21,1.76,1.76,0,0,1,.75-.69,2.23,2.23,0,0,1,1-.22,2.82,2.82,0,0,1,1.26.33l-.29.58a3.68,3.68,0,0,0-.55-.21,2,2,0,0,0-.48-.06,1,1,0,0,0-.84.39,1.74,1.74,0,0,0-.3,1.09,1.3,1.3,0,0,0,.31,1,1.1,1.1,0,0,0,.82.3,1.64,1.64,0,0,0,.56-.09A3.8,3.8,0,0,0,118,85l.31.53a3,3,0,0,1-.64.33A2.43,2.43,0,0,1,117,86Z"/><path class="cls-6" d="M124.31,81.45a.84.84,0,0,1-.37-.08,1.66,1.66,0,0,1-.32-.2l-.19-.13a.24.24,0,0,0-.15,0,.35.35,0,0,0-.23.09,1.16,1.16,0,0,0-.22.3l-.46-.18a1.69,1.69,0,0,1,.43-.63.91.91,0,0,1,.93-.14,2.21,2.21,0,0,1,.33.21l.18.13a.42.42,0,0,0,.15,0,.32.32,0,0,0,.23-.09,1.15,1.15,0,0,0,.23-.3l.46.18a1.87,1.87,0,0,1-.43.63.8.8,0,0,1-.57.21m-1.47,3.46a.42.42,0,0,0,.14.34.62.62,0,0,0,.42.12,2.38,2.38,0,0,0,1.21-.35v-.91a3.91,3.91,0,0,0-1.28.23C123,84.48,122.84,84.67,122.84,84.91ZM124,82a1.57,1.57,0,0,1,1.05.3,1.21,1.21,0,0,1,.35,1V85.9h-.71l0-.33a2.49,2.49,0,0,1-1.45.44,1.41,1.41,0,0,1-.62-.13.93.93,0,0,1-.42-.36A.94.94,0,0,1,122,85a1,1,0,0,1,.36-.8,2.19,2.19,0,0,1,.94-.47,5.85,5.85,0,0,1,1.31-.17v-.19a.83.83,0,0,0-.16-.57.74.74,0,0,0-.56-.18,2.61,2.61,0,0,0-1.38.45l-.34-.52A3.21,3.21,0,0,1,124,82Z"/><path class="cls-6" d="M131.56,85.39c.78,0,1.17-.47,1.17-1.42a1.69,1.69,0,0,0-.28-1,1,1,0,0,0-.86-.38,1.1,1.1,0,0,0-.92.37,1.75,1.75,0,0,0-.28,1,1.65,1.65,0,0,0,.3,1,1,1,0,0,0,.87.38m-.07.62a2,2,0,0,1-1.07-.27,1.6,1.6,0,0,1-.63-.73,2.44,2.44,0,0,1-.21-1,2.22,2.22,0,0,1,.27-1.15,1.63,1.63,0,0,1,.74-.66,2.66,2.66,0,0,1,1-.2,2,2,0,0,1,1.06.26,1.62,1.62,0,0,1,.64.73,2.43,2.43,0,0,1,.21,1,2.21,2.21,0,0,1-.27,1.16,1.52,1.52,0,0,1-.74.66A2.52,2.52,0,0,1,131.49,86Z"/><path class="cls-6" d="M143.75,84.07a1.46,1.46,0,0,0,.27,1,1,1,0,0,0,.78.32,2.09,2.09,0,0,0,1-.29V82.68a2.84,2.84,0,0,0-.8-.13,1.35,1.35,0,0,0-.66.17,1.06,1.06,0,0,0-.45.5,2,2,0,0,0-.17.85m2.87-4.29V85.9h-.71l0-.28a3.16,3.16,0,0,1-.66.29,2.16,2.16,0,0,1-.63.1,1.72,1.72,0,0,1-.9-.23,1.5,1.5,0,0,1-.57-.67,2.48,2.48,0,0,1-.19-1,2.41,2.41,0,0,1,.26-1.15,1.79,1.79,0,0,1,.74-.73A2.14,2.14,0,0,1,145,82a3.44,3.44,0,0,1,.86.11v-2.2Z"/><path class="cls-6" d="M152.77,82.54a1,1,0,0,0-.74.28,1.39,1.39,0,0,0-.35.74h2v0a1,1,0,0,0-.23-.74.87.87,0,0,0-.66-.25m1.64,1.57h-2.77a1.24,1.24,0,0,0,.33,1,1.16,1.16,0,0,0,.83.3,2,2,0,0,0,.63-.09A3.76,3.76,0,0,0,154,85l.3.53a2.93,2.93,0,0,1-1.57.47,2,2,0,0,1-1.39-.47,1.9,1.9,0,0,1-.53-1.49,2.6,2.6,0,0,1,.22-1,1.85,1.85,0,0,1,.65-.76,1.88,1.88,0,0,1,1.06-.28,1.93,1.93,0,0,1,.9.2,1.42,1.42,0,0,1,.57.57,1.8,1.8,0,0,1,.19.82Z"/><path class="cls-6" d="M167.49,82.06v0L165.9,85.9h-.72l-1.62-3.79v0h.85l1,2.48.14.4.06.17c.06-.2.12-.39.19-.57l.91-2.48Z"/><path class="cls-6" d="M171.43,81.61l-.3-.34,1.42-1.11.46.62Zm.06,4.29V82.06l.78-.09V85.9Z"/><path class="cls-6" d="M177.33,84.07a1.41,1.41,0,0,0,.28,1,1,1,0,0,0,.77.32,2.13,2.13,0,0,0,1-.29V82.68a2.91,2.91,0,0,0-.81-.13,1.29,1.29,0,0,0-.65.17,1,1,0,0,0-.46.5,2,2,0,0,0-.17.85m2.87-4.29V85.9h-.71l0-.28a3.16,3.16,0,0,1-.66.29,2.16,2.16,0,0,1-.63.1,1.72,1.72,0,0,1-.9-.23,1.5,1.5,0,0,1-.57-.67,2.48,2.48,0,0,1-.19-1,2.41,2.41,0,0,1,.26-1.15,1.79,1.79,0,0,1,.74-.73,2.14,2.14,0,0,1,1.05-.25,3.57,3.57,0,0,1,.87.11v-2.2Z"/><path class="cls-6" d="M186.35,82.54a1,1,0,0,0-.74.28,1.39,1.39,0,0,0-.35.74h2v0a1,1,0,0,0-.23-.74.87.87,0,0,0-.66-.25M188,84.11h-2.77a1.24,1.24,0,0,0,.33,1,1.16,1.16,0,0,0,.83.3,2,2,0,0,0,.63-.09,3.76,3.76,0,0,0,.6-.27l.3.53a2.93,2.93,0,0,1-1.57.47,2,2,0,0,1-1.39-.47,1.9,1.9,0,0,1-.52-1.49,2.59,2.59,0,0,1,.21-1,1.85,1.85,0,0,1,.65-.76,1.88,1.88,0,0,1,1.06-.28,1.93,1.93,0,0,1,.9.2,1.42,1.42,0,0,1,.57.57,1.8,1.8,0,0,1,.19.82Z"/><path class="cls-6" d="M193.9,85.39c.78,0,1.17-.47,1.17-1.42a1.69,1.69,0,0,0-.28-1,1,1,0,0,0-.86-.38,1.1,1.1,0,0,0-.92.37,1.75,1.75,0,0,0-.27,1,1.65,1.65,0,0,0,.29,1,1,1,0,0,0,.87.38m-.07.62a2,2,0,0,1-1.07-.27,1.66,1.66,0,0,1-.63-.73,2.44,2.44,0,0,1-.21-1,2.22,2.22,0,0,1,.27-1.15,1.63,1.63,0,0,1,.74-.66,2.69,2.69,0,0,1,1-.2,2.07,2.07,0,0,1,1.07.26,1.66,1.66,0,0,1,.63.73,2.43,2.43,0,0,1,.21,1,2.21,2.21,0,0,1-.27,1.16,1.52,1.52,0,0,1-.74.66A2.52,2.52,0,0,1,193.83,86Z"/><path class="cls-6" d="M201.42,86a3.14,3.14,0,0,1-1-.13,2.34,2.34,0,0,1-.79-.39L200,85a2.41,2.41,0,0,0,1.38.45,1.21,1.21,0,0,0,.63-.13.44.44,0,0,0,.22-.4.48.48,0,0,0-.2-.37,2,2,0,0,0-.68-.27l-.29-.07a2.38,2.38,0,0,1-.93-.42,1,1,0,0,1-.1-1.26,1.19,1.19,0,0,1,.53-.39,1.89,1.89,0,0,1,.77-.14,3.48,3.48,0,0,1,.79.09,2.83,2.83,0,0,1,.76.31l-.31.54a3.48,3.48,0,0,0-.65-.27,2.2,2.2,0,0,0-.58-.08,1,1,0,0,0-.52.13.41.41,0,0,0-.18.34.31.31,0,0,0,.15.28,1.6,1.6,0,0,0,.52.2l.28.07a3.88,3.88,0,0,1,.83.3,1.08,1.08,0,0,1,.46.4,1,1,0,0,1,.15.55,1,1,0,0,1-.19.62,1.19,1.19,0,0,1-.55.42,2.28,2.28,0,0,1-.88.15"/></svg>